<svg width="32" height="28" viewBox="0 0 32 28" fill="none" xmlns="http://www.w3.org/2000/svg">
<path d="M30.0766 11.7538C29.9457 11.7326 29.8132 11.7228 29.6806 11.7245H7.10524L7.5975 11.4955C8.07866 11.2678 8.51642 10.9579 8.89111 10.5797L15.2218 4.24901C16.0556 3.45309 16.1957 2.17271 15.5538 1.21531C14.8068 0.195085 13.3741 -0.0264321 12.3538 0.720616C12.2714 0.780997 12.1931 0.846826 12.1194 0.917663L0.67151 12.3656C-0.223145 13.2592 -0.223932 14.7089 0.669721 15.6035L0.67151 15.6053L12.1194 27.0533C13.0148 27.9461 14.4645 27.9441 15.3574 27.0487C15.4277 26.9783 15.4933 26.9033 15.5538 26.8243C16.1957 25.8669 16.0556 24.5865 15.2218 23.7906L8.90256 17.4485C8.56665 17.1122 8.18043 16.8302 7.75777 16.6128L7.07089 16.3037H29.5546C30.7242 16.3471 31.7504 15.5301 31.9701 14.3804C32.1725 13.1322 31.3248 11.9563 30.0766 11.7538Z" fill="black"/>
</svg>
