<svg width="16" height="16" viewBox="0 0 16 16" fill="none" xmlns="http://www.w3.org/2000/svg">
<g clip-path="url(#clip0_215_2)">
<path d="M9.46582 8.01316L15.696 1.78287C16.1014 1.37761 16.1014 0.722342 15.696 0.31713C15.2907 -0.0881317 14.6355 -0.0881317 14.2303 0.31713L7.99993 6.54737L1.76984 0.31713C1.36438 -0.0881317 0.709353 -0.0881317 0.304092 0.31713C-0.101364 0.722391 -0.101364 1.37761 0.304092 1.78287L6.53413 8.01316L0.30414 14.2434C-0.101315 14.6487 -0.101315 15.3039 0.30414 15.7091C0.40027 15.8055 0.514502 15.882 0.640272 15.9341C0.766042 15.9862 0.900871 16.013 1.03701 16.0128C1.30233 16.0128 1.56774 15.9113 1.76988 15.7091L7.99993 9.4789L14.2303 15.7091C14.3264 15.8055 14.4406 15.882 14.5664 15.9341C14.6922 15.9862 14.827 16.013 14.9631 16.0128C15.2284 16.0128 15.4939 15.9113 15.696 15.7091C16.1014 15.3039 16.1014 14.6487 15.696 14.2434L9.46582 8.01316Z" fill="black"/>
</g>
<defs>
<clipPath id="clip0_215_2">
<rect width="16" height="16" fill="white"/>
</clipPath>
</defs>
</svg>
