<svg width="48" height="48" viewBox="0 0 48 48" fill="none" xmlns="http://www.w3.org/2000/svg">
<g clip-path="url(#clip0_156_10)">
<path d="M45.5998 21.6H26.4001V2.39985C26.4001 1.07539 25.3247 0 23.9998 0C22.6754 0 21.6 1.07539 21.6 2.39985V21.6H2.39985C1.07539 21.6 0 22.6754 0 23.9998C0 25.3247 1.07539 26.4001 2.39985 26.4001H21.6V45.5998C21.6 46.9247 22.6754 48.0001 23.9998 48.0001C25.3247 48.0001 26.4001 46.9247 26.4001 45.5998V26.4001H45.5998C46.9247 26.4001 48.0001 25.3247 48.0001 23.9998C48.0001 22.6754 46.9247 21.6 45.5998 21.6Z" fill="black"/>
</g>
<defs>
<clipPath id="clip0_156_10">
<rect width="48" height="48" fill="white"/>
</clipPath>
</defs>
</svg>
