<svg width="600" height="300" viewBox="0 0 600 300" fill="none" xmlns="http://www.w3.org/2000/svg">
<g clip-path="url(#clip0_3_18)">
<path d="M0 -1H900V299H0V-1Z" fill="#E1D8F1"/>
<g opacity="0.3">
<ellipse cx="66.9867" cy="31.4937" rx="66.9867" ry="31.4937" transform="matrix(0.955916 0.293639 -0.441883 0.897073 413.832 130)" fill="#C2B0E2"/>
<path d="M484.176 33.9037C473.033 18.2996 485.224 -0.763592 511.407 -8.67505C537.59 -16.5865 567.849 -10.3504 578.992 5.25375C590.136 20.8579 577.945 39.921 551.762 47.8325C525.579 55.7439 495.32 49.5078 484.176 33.9037Z" fill="#C2B0E2"/>
<ellipse cx="62.8523" cy="29.1097" rx="62.8523" ry="29.1097" transform="matrix(0.759863 0.650083 -0.828359 0.560198 104.225 -34)" fill="#C2B0E2"/>
<path d="M413.5 92C381.249 113.811 329.457 109.551 297.82 82.4847C266.183 55.4185 266.681 15.7957 298.933 -6.01528C331.185 -27.8263 382.977 -23.5662 414.614 3.50002C446.251 30.5662 445.752 70.189 413.5 92Z" fill="#C2B0E2"/>
<ellipse cx="127.943" cy="114.223" rx="127.943" ry="114.223" transform="matrix(-0.824261 0.566209 -0.263004 -0.964795 251.998 301.404)" fill="#C2B0E2"/>
</g>
</g>
<defs>
<clipPath id="clip0_3_18">
<path d="M0 0H600V236C600 271.346 571.346 300 536 300H0V0Z" fill="white"/>
</clipPath>
</defs>
</svg>
